<svg viewBox="0 0 24 24" fill="none" xmlns="http://www.w3.org/2000/svg">
<path id="penTip" d="M6.80591 5.26482V1.9707H17.1588V5.26482H6.80591Z M10.5 21.5V23H13.5V21.5H10.5Z" fill="gray"/>
<path d="M17.1589 1.49991L17.1589 5.26462M17.1589 5.26462V5.26462C17.6787 5.26462 18.1001 5.68599 18.1001 6.20579L18.1001 8.02932C18.1001 8.58161 17.6524 9.02932 17.1001 9.02932L16.6883 9.02932M17.1589 5.26462L6.80598 5.26462M6.80598 1.49991L6.80598 5.26462M6.80598 5.26462V5.26462C6.28618 5.26462 5.8648 5.686 5.8648 6.2058L5.8648 8.02932C5.8648 8.58161 6.31252 9.02932 6.8648 9.02932L7.27657 9.02932M16.6883 9.02932L14.4914 20.4535C14.4008 20.9243 13.9888 21.2646 13.5094 21.2646L13.3942 21.2646M16.6883 9.02932L7.27657 9.02932M7.27657 9.02932L9.02847 20.4167C9.10352 20.9045 9.52327 21.2646 10.0168 21.2646L10.5707 21.2646M13.3942 21.2646L13.3942 23.147L10.5707 23.147L10.5707 21.2646M13.3942 21.2646L10.5707 21.2646M4.45304 7.14697L5.39422 7.14697M3.04128 10.9117V10.9117C2.52148 10.9117 2.1001 10.4903 2.1001 9.9705L2.1001 4.32344C2.1001 3.80364 2.52148 3.38227 3.04128 3.38227V3.38227C3.56107 3.38227 3.98245 3.80364 3.98245 4.32344L3.98245 9.9705C3.98245 10.4903 3.56107 10.9117 3.04128 10.9117Z" stroke="#373737" stroke-linecap="round" stroke-linejoin="round"/>
</svg>
