<svg viewBox="0 0 24 24" fill="none" xmlns="http://www.w3.org/2000/svg">
<path id="penTip" d="M16.3029 14.7057C15.0605 14.2589 13.584 14 12.0001 14C10.4158 14 8.93912 14.259 7.69653 14.7059C8.1145 17.3357 9.16824 19.7558 11.7081 22.082C11.8729 22.233 12.126 22.233 12.2909 22.082C14.8311 19.7557 15.8849 17.3355 16.3029 14.7057Z" fill="gray"/>
<path fill-rule="evenodd" d="M6.49951 1V2.5H17.4995V1H18.4995V3C18.4995 3.02545 18.4976 3.05087 18.4937 3.07603L18.0322 6.07603C17.9946 6.31994 17.7848 6.5 17.538 6.5H17.5015C17.5064 7.1406 17.5197 7.77528 17.5328 8.40398C17.6419 13.6313 17.7424 18.4455 12.9662 22.8195C12.4191 23.3206 11.5797 23.3205 11.0326 22.8195C6.25704 18.4455 6.3574 13.6314 6.46636 8.40423C6.47947 7.77545 6.4927 7.14069 6.49759 6.5H6.46105C6.21426 6.5 6.00439 6.31994 5.96686 6.07603L5.50533 3.07603C5.50146 3.05087 5.49951 3.02545 5.49951 3V1H6.49951ZM7.49784 6.5C7.49338 7.17003 7.48087 7.82544 7.46861 8.46737C7.3688 13.6972 7.28606 18.032 11.708 22.082C11.8729 22.233 12.126 22.233 12.2909 22.082C16.7134 18.0319 16.6305 13.6971 16.5306 8.46713C16.5183 7.82528 16.5058 7.16995 16.5013 6.5H12.4995V9.5C12.4995 9.77614 12.2757 10 11.9995 10C11.7234 10 11.4995 9.77614 11.4995 9.5V6.5H10.0996V10.5C10.0996 10.7761 9.87575 11 9.59961 11C9.32347 11 9.09961 10.7761 9.09961 10.5V6.5H7.49784ZM17.109 5.5H6.89001L6.58232 3.5H17.4167L17.109 5.5Z" fill="#373737"/>
</svg>
