<svg viewBox="0 0 24 24" fill="none" xmlns="http://www.w3.org/2000/svg">
<path id="penTip" d="M16.2138 14.6744C15.2 14.3204 14.0351 14.0903 12.786 14.0218V21.0222L16.2138 14.6744Z M11.786 14.002V21.0222L8.27344 14.5175C9.32714 14.2048 10.5199 14.0207 11.786 14.002Z" fill="gray"/>
<path fill-rule="evenodd" d="M7.21436 2.42871C7.21436 2.15257 6.9905 1.92871 6.71436 1.92871C6.43821 1.92871 6.21436 2.15257 6.21436 2.42871V5.46443C6.21436 6.43092 6.99786 7.21443 7.96436 7.21443H8.10277L6.50735 10.9854C6.15253 11.8241 6.19785 12.7785 6.63054 13.5798L10.9659 21.6083C11.5328 22.658 13.0388 22.658 13.6056 21.6083L17.941 13.5798C18.3737 12.7785 18.419 11.8241 18.0642 10.9854L16.4688 7.21443H16.6072C17.5737 7.21443 18.3572 6.43092 18.3572 5.46443V2.42871C18.3572 2.15257 18.1334 1.92871 17.8572 1.92871C17.5811 1.92871 17.3572 2.15257 17.3572 2.42871V5.46443C17.3572 5.87864 17.0214 6.21443 16.6072 6.21443H15.7255C15.7179 6.21425 15.7104 6.21425 15.7028 6.21443H8.86877C8.8612 6.21425 8.85364 6.21425 8.8461 6.21443H7.96436C7.55014 6.21443 7.21436 5.87864 7.21436 5.46443V2.42871ZM7.42832 11.375L9.18858 7.21443H15.383L17.1432 11.375C17.3798 11.9341 17.3496 12.5704 17.0611 13.1046L12.7858 21.0219V12.9821C13.002 12.8265 13.1428 12.5726 13.1428 12.2859C13.1428 11.8125 12.7591 11.4287 12.2857 11.4287C11.8123 11.4287 11.4285 11.8125 11.4285 12.2859C11.4285 12.5727 11.5694 12.8266 11.7858 12.9822V21.0219L7.51045 13.1046C7.22199 12.5704 7.19177 11.9342 7.42832 11.375Z" fill="#373737"/>
</svg>
