<svg viewBox="0 0 24 24" fill="none" xmlns="http://www.w3.org/2000/svg">
<path id="penTip" d="M15.1121 15.3532C14.1555 15.1258 13.1039 15 12.0001 15C10.8957 15 9.84366 15.1259 8.88672 15.3535C9.47017 17.5136 10.4278 19.6298 11.9993 22.0859C13.5709 19.6296 14.5287 17.5134 15.1121 15.3532Z" fill="gray"/>
<path fill-rule="evenodd" d="M7.49951 1H6.49951V6C6.49951 6.27614 6.72337 6.5 6.99951 6.5C7.01172 9.77447 7.15418 12.4343 7.76285 14.9908C8.4044 17.6854 9.55797 20.2395 11.5831 23.2773C11.6758 23.4164 11.8319 23.5 11.9991 23.5C12.1663 23.5 12.3224 23.4164 12.4152 23.2773C14.4404 20.2396 15.5941 17.6854 16.2357 14.9908C16.8444 12.4343 16.9862 9.77447 16.9984 6.5H16.9995C17.2757 6.5 17.4995 6.27614 17.4995 6L17.4995 1H16.4995L16.4995 3H7.49951V1ZM15.9984 6.5H12.4995V9.5C12.4995 9.77614 12.2757 10 11.9995 10C11.7234 10 11.4995 9.77614 11.4995 9.5V6.5H10.4993V10.5C10.4993 10.7761 10.2754 11 9.99927 11C9.72313 11 9.49927 10.7761 9.49927 10.5V6.5H8.00019C8.01252 9.75413 8.15448 12.3182 8.73565 14.7592C9.29993 17.1292 10.2839 19.405 11.9991 22.0859C13.7145 19.405 14.6985 17.1292 15.2628 14.7592C15.8441 12.3182 15.986 9.75413 15.9984 6.5ZM16.4995 5.5H7.49951V4H16.4995V5.5Z" fill="#373737"/>
</svg>
