<svg viewBox="0 0 24 24" fill="none" xmlns="http://www.w3.org/2000/svg">
<path fill-rule="evenodd" clip-rule="evenodd" d="M2.14645 2.14645C2.34171 1.95118 2.65829 1.95118 2.85355 2.14645L11.5 10.7929L20.1464 2.14645C20.3417 1.95118 20.6583 1.95118 20.8536 2.14645C21.0488 2.34171 21.0488 2.65829 20.8536 2.85355L12.2071 11.5L20.8536 20.1464C21.0488 20.3417 21.0488 20.6583 20.8536 20.8536C20.6583 21.0488 20.3417 21.0488 20.1464 20.8536L11.5 12.2071L2.85355 20.8536C2.65829 21.0488 2.34171 21.0488 2.14645 20.8536C1.95118 20.6583 1.95118 20.3417 2.14645 20.1464L10.7929 11.5L2.14645 2.85355C1.95118 2.65829 1.95118 2.34171 2.14645 2.14645Z" fill="black" fill-opacity="0.8956"/>
</svg>
