<svg viewBox="0 0 18 18" fill="none" xmlns="http://www.w3.org/2000/svg">
<path d="M9.54545 14.895C8.96604 14.895 8.45698 14.5667 8.1662 14.0713C7.92907 14.2171 7.65527 14.3003 7.36364 14.3003C6.79822 14.3003 6.29978 13.9876 6.00584 13.5121C5.10821 14.1318 4.73041 14.895 3.32377 15C4.26316 14.0713 4.61496 13.429 4.86973 12.498C4.79351 12.5099 4.71559 12.516 4.63636 12.516C3.73262 12.516 3 11.7172 3 10.7318C3 10.1111 3.29061 9.56454 3.73152 9.24488C3.29061 8.92523 3 8.37862 3 7.75801C3 6.77259 3.73262 5.97375 4.63636 5.97375C4.66792 5.97375 4.69929 5.97473 4.73041 5.97665C4.66952 5.78981 4.63636 5.58863 4.63636 5.379C4.63636 4.39359 5.36898 3.59475 6.27273 3.59475C6.74377 3.59475 7.16831 3.81177 7.46687 4.1591C7.69919 3.48203 8.29797 3 9 3C9.57941 3 10.0885 3.32836 10.3793 3.82373C10.6164 3.67793 10.8902 3.59475 11.1818 3.59475C11.8953 3.59475 12.502 4.09258 12.726 4.78704C12.7565 4.78519 12.7872 4.78425 12.8182 4.78425C13.7219 4.78425 14.4545 5.58309 14.4545 6.5685C14.4545 6.71062 14.4393 6.84885 14.4105 6.98137C14.7707 7.30866 15 7.80152 15 8.35276C15 8.67775 14.9203 8.98244 14.7811 9.24488C14.9203 9.50732 15 9.81202 15 10.137C15 11.1224 14.2674 11.9213 13.3636 11.9213C13.3636 12.9067 12.631 13.7055 11.7273 13.7055C11.5144 13.7055 11.311 13.6612 11.1245 13.5806C10.9354 14.338 10.3001 14.895 9.54545 14.895Z" stroke="black" stroke-opacity="0.8956"/>
</svg>
