<svg viewBox="0 0 16 16" fill="none" xmlns="http://www.w3.org/2000/svg">
<path fill-rule="evenodd" clip-rule="evenodd" d="M6.52353 5.50293C6.54244 5.5241 6.56206 5.54485 6.58238 5.56518L10.1682 9.15096C10.1886 9.17136 10.2094 9.19105 10.2306 9.21002L5.73785 13.7028C5.20086 14.2398 4.42335 14.3589 3.8792 14.4324C3.11768 14.5352 2.22619 15.0382 1.31661 15.6089C0.951209 15.8382 0.514858 15.7852 0.238831 15.5043C-0.0356477 15.225 -0.0829352 14.7902 0.145859 14.4282C0.716761 13.525 1.20934 12.6242 1.30537 11.859C1.37432 11.3095 1.4931 10.5334 2.03074 9.99571L6.52353 5.50293ZM2.73785 10.7028L7.22877 6.2119L9.52167 8.50479L5.03074 12.9957C4.76424 13.2622 4.32738 13.3628 3.74543 13.4414C2.9302 13.5514 2.07581 13.9843 1.31343 14.4378C1.76923 13.6683 2.19438 12.8059 2.29759 11.9835C2.37011 11.4055 2.472 10.9687 2.73785 10.7028Z" fill="black" fill-opacity="0.8956"/>
<path d="M9.95044 2.22651L11.4443 0.732255C12.4206 -0.244055 14.0036 -0.2441 14.9799 0.732211C15.9562 1.70851 15.9562 3.29139 14.9799 4.2677L13.486 5.76204L9.95044 2.22651Z" fill="#005FB7"/>
<path d="M9.22882 2.91885C8.64304 2.33306 7.69329 2.33307 7.1075 2.91885L6.58241 3.44395C5.99662 4.02973 5.99662 4.97948 6.58241 5.56527L10.1682 9.15105C10.754 9.73684 11.7037 9.73684 12.2895 9.15105L12.8146 8.62596C13.4004 8.04017 13.4004 7.09042 12.8146 6.50464L9.22882 2.91885Z" fill="#005FB7"/>
</svg>
