<svg viewBox="0 0 24 24" fill="none" xmlns="http://www.w3.org/2000/svg">
<path id="penTip" d="M18.6957 8.30456V6.56543H15.5H14.587H5V8.30456C5 8.85684 5.44772 9.30456 6 9.30456L7.28261 9.30456L10.0217 23.0002H13.6739L16.413 9.30456L17.6957 9.30456C18.2479 9.30456 18.6957 8.85684 18.6957 8.30456Z" fill="gray"/>
<path d="M18.6956 2L18.6956 8.30435C18.6956 8.85663 18.2478 9.30435 17.6956 9.30435L5.99991 9.30435C5.44762 9.30435 4.99991 8.85663 4.99991 8.30435L4.99991 2M16.4129 9.73684L13.6738 23L10.0216 23L7.28251 9.73684M5.45643 6.56522L18.239 6.56522" stroke="#373737" stroke-linecap="round" stroke-linejoin="round"/>
</svg>
