<svg viewBox="0 0 24 24" fill="none" xmlns="http://www.w3.org/2000/svg">
<path fill-rule="evenodd" clip-rule="evenodd" d="M0 15.7767V18C0 19.6569 1.34315 21 3 21H21C22.6569 21 24 19.6569 24 18V6C24 4.34315 22.6569 3 21 3H7.49714L8.98934 4.4922C8.99193 4.49479 8.99453 4.4974 8.99712 4.5H21C21.8284 4.5 22.5 5.17157 22.5 6V18C22.5 18.8284 21.8284 19.5 21 19.5H3C2.17157 19.5 1.5 18.8284 1.5 18V17.2767L0 15.7767Z" fill="black" fill-opacity="0.3614"/>
<path d="M0.999995 4.84375C0.913703 4.84375 0.84375 4.9137 0.84375 4.99999C0.84375 5.08629 0.913703 5.15624 0.999995 5.15624H1.24208C2.3616 5.15624 5.56207 5.27224 8.92018 6.7754C12.3216 8.29798 14.9374 8.38226 15.7582 8.38226H16C16.0863 8.38226 16.1562 8.31231 16.1562 8.22602C16.1562 8.13973 16.0863 8.06977 16 8.06977H15.7582C14.9661 8.06977 12.3972 7.98942 9.04785 6.49019C5.63176 4.96106 2.38062 4.84375 1.24208 4.84375H0.999995Z" fill="black" fill-opacity="0.3614"/>
<path d="M1.15917 6.85431C0.986586 6.85431 0.84668 6.99422 0.84668 7.1668C0.84668 7.33938 0.986586 7.47929 1.15917 7.47929C2.23333 7.47929 5.66215 7.48188 8.82197 9.05345C12.0999 10.6838 15.0428 10.8127 15.84 10.8127C16.0126 10.8127 16.1525 10.6727 16.1525 10.5002C16.1525 10.3276 16.0126 10.1877 15.84 10.1877C15.0988 10.1877 12.2616 10.0661 9.10028 8.49386C5.80374 6.85429 2.25002 6.85431 1.16427 6.85431H1.15917Z" fill="black" fill-opacity="0.3614"/>
<path d="M1.31932 8.86456C1.06045 8.86456 0.850586 9.07442 0.850586 9.3333C0.850586 9.59217 1.06045 9.80203 1.31932 9.80203H1.68692C3.00164 9.81384 5.82844 9.94464 8.77635 11.3631C11.8068 12.8213 14.2272 13.1161 15.333 13.1354H15.681C15.9399 13.1354 16.1498 12.9255 16.1498 12.6667C16.1498 12.4078 15.9399 12.1979 15.681 12.1979H15.3453C14.3639 12.1802 12.08 11.9124 9.18283 10.5183C6.04936 9.01059 3.05817 8.8767 1.69318 8.86456H1.31932Z" fill="black" fill-opacity="0.3614"/>
<path d="M0.853576 12.1579C0.858317 11.8128 1.14195 11.5368 1.48708 11.5416C2.95887 11.5618 6.08621 11.7321 9.25798 13.2083C12.1044 14.5331 14.47 14.8451 15.5386 14.8751C15.8836 14.8848 16.1555 15.1724 16.1458 15.5174C16.1361 15.8624 15.8485 16.1343 15.5035 16.1246C14.2765 16.0901 11.7418 15.7431 8.73054 14.3416C5.79584 12.9757 2.87685 12.8107 1.46991 12.7914C1.12478 12.7867 0.848835 12.503 0.853576 12.1579Z" fill="black" fill-opacity="0.3614"/>
</svg>
