<svg viewBox="0 0 24 24" fill="none" xmlns="http://www.w3.org/2000/svg">
<path fill-rule="evenodd" clip-rule="evenodd" d="M1.14008 12.1342C1.32685 11.9553 1.62967 11.9553 1.81644 12.1342L12 21.8935L22.1836 12.1342C22.3703 11.9553 22.6731 11.9553 22.8599 12.1342C23.0467 12.3132 23.0467 12.6034 22.8599 12.7824L12.3382 22.8658C12.1514 23.0447 11.8486 23.0447 11.6618 22.8658L1.14008 12.7824C0.953307 12.6034 0.953307 12.3132 1.14008 12.1342Z" fill="#000000" fill-opacity="0.359"/>
<path fill-rule="evenodd" clip-rule="evenodd" d="M12 1C12.2641 1 12.4783 1.2052 12.4783 1.45833V22.0833C12.4783 22.3365 12.2641 22.5417 12 22.5417C11.7359 22.5417 11.5217 22.3365 11.5217 22.0833V1.45833C11.5217 1.2052 11.7359 1 12 1Z" fill="#000000" fill-opacity="0.359"/>
</svg>
