<svg viewBox="0 0 16 16" fill="none" xmlns="http://www.w3.org/2000/svg">
<path d="M8.76264 0.512563C9.44606 -0.170855 10.5541 -0.170853 11.2375 0.512564L15.4697 4.7448C16.1532 5.42821 16.1532 6.53625 15.4697 7.21967L8.50008 14.1893L7.79297 13.4822L2.50008 8.18934L1.79297 7.48223L8.76264 0.512563Z" fill="#F6AEAC"/>
<path d="M12.5 15.5H6" stroke="black" stroke-opacity="0.8956" stroke-linecap="round"/>
<path d="M2.5 7.5L8.5 13.5M0.883884 10.8839L5.11612 15.1161C5.60427 15.6043 6.39573 15.6043 6.88388 15.1161L15.1161 6.88388C15.6043 6.39573 15.6043 5.60427 15.1161 5.11612L10.8839 0.883884C10.3957 0.395728 9.60427 0.395727 9.11612 0.883883L0.883883 9.11612C0.395728 9.60427 0.395728 10.3957 0.883884 10.8839Z" stroke="black" stroke-opacity="0.8956" stroke-linejoin="round"/>
</svg>
