<svg viewBox="0 0 24 24" fill="none" xmlns="http://www.w3.org/2000/svg">
<g clip-path="url(#clip0_544_128850)">
<path fill-rule="evenodd" clip-rule="evenodd" d="M11.6314 3.08842C11.8642 2.97053 12.1393 2.97053 12.3722 3.08842L20.521 7.21416C21.1644 7.53988 21.1644 8.45866 20.521 8.78438L12.3722 12.9101C12.1393 13.028 11.8642 13.028 11.6314 12.9101L3.4825 8.78438C2.83917 8.45866 2.83917 7.53988 3.4825 7.21416L11.6314 3.08842ZM12.8239 2.19625C12.307 1.93458 11.6965 1.93458 11.1797 2.19625L3.0308 6.32199C1.6564 7.01784 1.6564 8.98069 3.0308 9.67655L11.1797 13.8023C11.6965 14.0639 12.307 14.0639 12.8239 13.8023L20.9728 9.67655C22.3472 8.98069 22.3472 7.01784 20.9728 6.32199L12.8239 2.19625ZM12.0018 21.0989L2.00049 16.0353C2.01267 16.6878 2.35616 17.3349 3.03096 17.6765L11.1798 21.8023C11.6967 22.0639 12.3072 22.0639 12.824 21.8023L20.9729 17.6765C21.6478 17.3349 21.9912 16.6877 22.0034 16.0351L12.0018 21.0989Z" fill="black" fill-opacity="0.8956"/>
<path fill-rule="evenodd" clip-rule="evenodd" d="M2.00049 12.0353L12.0018 17.0989L22.0034 12.0352C21.9912 12.6878 21.6478 13.3349 20.9729 13.6766L12.824 17.8023C12.3072 18.064 11.6967 18.064 11.1798 17.8023L3.03096 13.6766C2.35616 13.335 2.01267 12.6879 2.00049 12.0353Z" fill="#005FB8"/>
</g>
<defs>
<clipPath id="clip0_544_128850">
<rect width="20.0036" height="19.9985" fill="white" transform="translate(2 2)"/>
</clipPath>
</defs>
</svg>
