<svg viewBox="0 0 16 16" fill="none" xmlns="http://www.w3.org/2000/svg">
<path fill-rule="evenodd" clip-rule="evenodd" d="M6.5 1C9.53757 1 12 3.46243 12 6.5C12 7.83879 11.5217 9.06586 10.7266 10.0196L14.8536 14.1464C15.0488 14.3417 15.0488 14.6583 14.8536 14.8536C14.68 15.0271 14.4106 15.0464 14.2157 14.9114L14.1464 14.8536L10.0196 10.7266C9.06586 11.5217 7.83879 12 6.5 12C3.46243 12 1 9.53757 1 6.5C1 3.46243 3.46243 1 6.5 1ZM6.5 2C4.01472 2 2 4.01472 2 6.5C2 8.98528 4.01472 11 6.5 11C8.98528 11 11 8.98528 11 6.5C11 4.01472 8.98528 2 6.5 2Z" fill="black" fill-opacity="0.8956"/>
<path d="M6.5 4V9M4 6.5H9" stroke="#005FB7" stroke-linecap="round"/>
</svg>
