<svg viewBox="0 0 24 24" fill="none" xmlns="http://www.w3.org/2000/svg">
<path id="penTip" d="M6.56519 12.9565V23L15.8269 17.9482C16.3088 17.6853 16.6087 17.1802 16.6087 16.6313V12.9565H6.56519Z M2 7.5V2.5H21V7C21 8.2 20.5 8.5 20 8.5H3C2.2 8.5 2 7.83333 2 7.5Z" fill="gray"/>
<path d="M2 2V7.39131C2 7.94359 2.44772 8.3913 3 8.3913H20.1739C20.7262 8.3913 21.1739 7.94359 21.1739 7.3913V2M3.82609 8.84783V11.4565C3.82609 12.2849 4.49766 12.9565 5.32609 12.9565H17.8478C18.6763 12.9565 19.3478 12.2849 19.3478 11.4565V8.84783M6.56522 13.413V23L15.827 17.9481C16.3089 17.6853 16.6087 17.1802 16.6087 16.6313V13.413" stroke="#373737" stroke-linecap="round" stroke-linejoin="round"/>
</svg>
