<svg viewBox="0 0 24 24" fill="none" xmlns="http://www.w3.org/2000/svg">
<path id="penTip" d="M7.1087 13.8696L11.6739 23L16.2391 13.8696H7.1087Z M3 2.5H20.5V6.5L15.75 4L11.75 6.5L7.5 4L3 6.5V2.5Z" fill="gray"/>
<path fill-rule="evenodd" d="M3 1.5C3.27614 1.5 3.5 1.72386 3.5 2V5.68221L7.30797 3.39743C7.47366 3.29801 7.6818 3.30297 7.84257 3.41015L11.6739 5.96438L15.5053 3.41015C15.6642 3.30418 15.8696 3.29804 16.0346 3.39434L19.8478 5.61978V2C19.8478 1.72386 20.0717 1.5 20.3478 1.5C20.624 1.5 20.8478 1.72386 20.8478 2V6.42105C20.8478 6.50178 20.8283 6.58131 20.7909 6.65284L12.1169 23.2318C12.0308 23.3964 11.8606 23.4997 11.6748 23.5C11.4891 23.5003 11.3184 23.3977 11.2317 23.2334L2.55781 6.7986C2.51984 6.72666 2.5 6.64655 2.5 6.56522V2C2.5 1.72386 2.72386 1.5 3 1.5ZM7.15658 13.3696L3.66316 6.7505L7.55114 4.41771L11.3966 6.98133C11.5645 7.09329 11.7833 7.09329 11.9513 6.98133L15.8002 4.41537L19.6557 6.66547L16.1481 13.3696H7.15658ZM7.68436 14.3696L11.672 21.9251L15.6249 14.3696H7.68436Z" fill="#373737"/>
</svg>
