<svg viewBox="0 0 12 12" xmlns="http://www.w3.org/2000/svg">
<path fill-rule="evenodd" d="M0 1.5C0 0.671573 0.671573 0 1.5 0H2.5C2.77614 0 3 0.223858 3 0.5C3 0.776142 2.77614 1 2.5 1H1.5C1.22386 1 1 1.22386 1 1.5V2.5C1 2.77614 0.776142 3 0.5 3C0.223858 3 0 2.77614 0 2.5V1.5ZM5 0.5C5 0.223858 5.22386 0 5.5 0H6.5C6.77614 0 7 0.223858 7 0.5C7 0.776142 6.77614 1 6.5 1H5.5C5.22386 1 5 0.776142 5 0.5ZM9 0.5C9 0.223858 9.22386 0 9.5 0H10.5C11.3284 0 12 0.671573 12 1.5V2.5C12 2.77614 11.7761 3 11.5 3C11.2239 3 11 2.77614 11 2.5V1.5C11 1.22386 10.7761 1 10.5 1H9.5C9.22386 1 9 0.776142 9 0.5ZM0.5 5C0.776142 5 1 5.22386 1 5.5V6.5C1 6.77614 0.776142 7 0.5 7C0.223858 7 0 6.77614 0 6.5V5.5C0 5.22386 0.223858 5 0.5 5ZM11.5 5C11.7761 5 12 5.22386 12 5.5V6.5C12 6.77614 11.7761 7 11.5 7C11.2239 7 11 6.77614 11 6.5V5.5C11 5.22386 11.2239 5 11.5 5ZM0.5 9C0.776142 9 1 9.22386 1 9.5V10.5C1 10.7761 1.22386 11 1.5 11H2.5C2.77614 11 3 11.2239 3 11.5C3 11.7761 2.77614 12 2.5 12H1.5C0.671574 12 0 11.3284 0 10.5V9.5C0 9.22386 0.223858 9 0.5 9ZM11.5 9C11.7761 9 12 9.22386 12 9.5V10.5C12 11.3284 11.3284 12 10.5 12H9.5C9.22386 12 9 11.7761 9 11.5C9 11.2239 9.22386 11 9.5 11H10.5C10.7761 11 11 10.7761 11 10.5V9.5C11 9.22386 11.2239 9 11.5 9ZM5 11.5C5 11.2239 5.22386 11 5.5 11H6.5C6.77614 11 7 11.2239 7 11.5C7 11.7761 6.77614 12 6.5 12H5.5C5.22386 12 5 11.7761 5 11.5Z" fill="black" fill-opacity="0.8956"/>
</svg>
