<svg viewBox="0 0 24 24" fill="none" xmlns="http://www.w3.org/2000/svg">
<path id="penTip" d="M16.9461 16.3988C16.7656 18.1838 16.4463 19.9553 15.9895 21.697L15.9481 21.8551C15.9184 21.9683 15.8223 22.0517 15.7061 22.0653L15.5005 22.0892V21C15.5005 20.7239 15.2766 20.5 15.0005 20.5C14.7243 20.5 14.5005 20.7239 14.5005 21V22.2056L14.3705 22.2207C14.0809 22.2544 13.7909 22.2819 13.5005 22.3033V19C13.5005 18.7239 13.2766 18.5 13.0005 18.5C12.7243 18.5 12.5005 18.7239 12.5005 19V22.3521C11.5426 22.3755 10.5834 22.3317 9.63012 22.2207L8.29456 22.0653C8.17829 22.0517 8.08221 21.9683 8.05252 21.8551L8.01111 21.6971C7.55443 19.9554 7.23515 18.1838 7.05469 16.3987C8.5627 16.1426 10.2371 16 12.0002 16C13.7635 16 15.438 16.1426 16.9461 16.3988Z" fill="gray"/>
<path fill-rule="evenodd" d="M7.59116 5.5V1H6.59116V5.93304L5.51787 9.86844C5.47686 10.0188 5.5083 10.1797 5.6029 10.3035C5.68952 10.4169 5.82003 10.4874 5.96108 10.4985C5.69914 14.3481 6.06436 18.216 7.04359 21.9507L7.085 22.1087C7.21916 22.6204 7.65332 22.9974 8.17873 23.0586L9.51429 23.214C11.1659 23.4063 12.8343 23.4063 14.4859 23.214L15.8215 23.0586C16.3469 22.9974 16.781 22.6204 16.9152 22.1088L16.9566 21.9507C17.936 18.216 18.3013 14.3481 18.0394 10.4985C18.1804 10.4874 18.311 10.4169 18.3976 10.3035C18.4922 10.1797 18.5236 10.0188 18.4826 9.86844L17.4093 5.93304V1H16.4093V5.5H7.59116ZM16.5274 6.5H7.47306L6.65487 9.5H17.3456L16.5274 6.5ZM6.96335 10.5H17.0371C17.3004 14.2635 16.9468 18.0458 15.9893 21.697L15.9479 21.8551C15.9182 21.9683 15.8221 22.0517 15.7059 22.0653L15.5002 22.0892V21C15.5002 20.7239 15.2764 20.5 15.0002 20.5C14.7241 20.5 14.5002 20.7239 14.5002 21V22.2056L14.3703 22.2207C14.0807 22.2544 13.7907 22.2819 13.5002 22.3033V19C13.5002 18.7239 13.2764 18.5 13.0002 18.5C12.7241 18.5 12.5002 18.7239 12.5002 19V22.3521C11.5423 22.3755 10.5832 22.3317 9.6299 22.2207L8.29435 22.0653C8.17807 22.0517 8.08199 21.9683 8.0523 21.8551L8.01089 21.6971C7.05352 18.0458 6.70001 14.2635 6.96335 10.5Z" fill="#373737"/>
</svg>