<svg viewBox="0 0 24 24" fill="none" xmlns="http://www.w3.org/2000/svg">
<path fill-rule="evenodd" clip-rule="evenodd" d="M6.94444 3.27778C6.30011 3.27778 5.77778 3.80011 5.77778 4.44444V19.2222C5.77778 19.8666 6.30011 20.3889 6.94444 20.3889H17.0556C17.6999 20.3889 18.2222 19.8666 18.2222 19.2222V9.75544C18.2222 9.44602 18.0993 9.14928 17.8805 8.93049L12.5695 3.61949C12.3507 3.40069 12.054 3.27778 11.7446 3.27778H6.94444ZM5 4.44444C5 3.37056 5.87056 2.5 6.94444 2.5H11.7446C12.2603 2.5 12.7548 2.70486 13.1195 3.06951L18.4305 8.38051C18.7951 8.74517 19 9.23974 19 9.75544V19.2222C19 20.2961 18.1294 21.1667 17.0556 21.1667H6.94444C5.87056 21.1667 5 20.2961 5 19.2222V4.44444Z" fill="black" fill-opacity="0.8956"/>
<path fill-rule="evenodd" clip-rule="evenodd" d="M12 7.55534V2.88867H12.7778V7.55534C12.7778 8.19967 13.3001 8.722 13.9444 8.722H18.6111V9.49978H13.9444C12.8706 9.49978 12 8.62923 12 7.55534Z" fill="black" fill-opacity="0.8956"/>
</svg>
