<svg viewBox="0 0 16 16" fill="none" xmlns="http://www.w3.org/2000/svg">
<g clip-path="url(#clip0)">
<path d="M14.3543 4.64644C14.5496 4.8417 14.5496 5.15828 14.3543 5.35355L5.44436 14.2635C5.14651 14.5613 4.77824 14.7791 4.37373 14.8966L0.63944 15.9809C0.463977 16.0319 0.274694 15.983 0.145756 15.8536C0.0168173 15.7241 -0.0312434 15.5347 0.0204046 15.3594L1.12988 11.5946C1.248 11.1938 1.46469 10.8289 1.76016 10.5335L10.6472 1.64645C10.8425 1.45118 11.159 1.45118 11.3543 1.64645L14.3543 4.64644Z" fill="#EECE82"/>
<path fill-rule="evenodd" clip-rule="evenodd" d="M12.3536 1.35355C12.5163 1.19085 12.8089 1 13.5 1C13.722 1 14.1136 1.11725 14.4489 1.38807C14.769 1.64659 15 2.01295 15 2.5C15 3.22404 14.6397 3.65324 14.2602 4.03277L14.0107 4.28226L11.7085 1.99858L12.3536 1.35355ZM13.3035 4.98936L4.73725 13.5557C4.55854 13.7344 4.33758 13.865 4.09487 13.9355L1.23784 14.7651L2.0891 11.8765C2.15997 11.636 2.28999 11.4171 2.46726 11.2399L11.0014 2.7057L13.3035 4.98936ZM14.3568 5.35029L14.9673 4.73988C15.3962 4.31095 16 3.63561 16 2.5C16 1.65135 15.5818 1.01771 15.0773 0.610147C14.5879 0.214897 13.9796 0 13.5 0C12.5911 0 12.0278 0.265137 11.6465 0.646441L10.6465 1.64644C10.6455 1.64738 10.6446 1.64832 10.6436 1.64927L1.76016 10.5328C1.46469 10.8282 1.248 11.193 1.12988 11.5938L0.0204046 15.3587C-0.0312434 15.5339 0.0168173 15.7234 0.145756 15.8529C0.274694 15.9823 0.463977 16.0311 0.63944 15.9802L4.37373 14.8958C4.77824 14.7784 5.14651 14.5606 5.44436 14.2628L14.3531 5.35398L14.3543 5.35281C14.3551 5.35198 14.356 5.35114 14.3568 5.35029Z" fill="black" fill-opacity="0.8956"/>
</g>
<defs>
<clipPath id="clip0">
<rect width="16" height="16" fill="white"/>
</clipPath>
</defs>
</svg>
