<svg viewBox="0 0 24 24" fill="none" xmlns="http://www.w3.org/2000/svg">
<path fill-rule="evenodd" clip-rule="evenodd" d="M7 1.5C7 1.22386 7.22386 1 7.5 1H11C11.2761 1 11.5 1.22386 11.5 1.5C11.5 1.77614 11.2761 2 11 2H7.5C7.22386 2 7 1.77614 7 1.5ZM12.5 1.5C12.5 1.22386 12.7239 1 13 1H16.5C16.7761 1 17 1.22386 17 1.5C17 1.77614 16.7761 2 16.5 2H13C12.7239 2 12.5 1.77614 12.5 1.5ZM1.5 7C1.77614 7 2 7.22386 2 7.5V11C2 11.2761 1.77614 11.5 1.5 11.5C1.22386 11.5 1 11.2761 1 11V7.5C1 7.22386 1.22386 7 1.5 7ZM22.5 7C22.7761 7 23 7.22386 23 7.5V11C23 11.2761 22.7761 11.5 22.5 11.5C22.2239 11.5 22 11.2761 22 11V7.5C22 7.22386 22.2239 7 22.5 7ZM1.5 12.5C1.77614 12.5 2 12.7239 2 13V16.5C2 16.7761 1.77614 17 1.5 17C1.22386 17 1 16.7761 1 16.5V13C1 12.7239 1.22386 12.5 1.5 12.5ZM22.5 12.5C22.7761 12.5 23 12.7239 23 13V16.5C23 16.7761 22.7761 17 22.5 17C22.2239 17 22 16.7761 22 16.5V13C22 12.7239 22.2239 12.5 22.5 12.5ZM7 22.5C7 22.2239 7.22386 22 7.5 22H11C11.2761 22 11.5 22.2239 11.5 22.5C11.5 22.7761 11.2761 23 11 23H7.5C7.22386 23 7 22.7761 7 22.5ZM12.5 22.5C12.5 22.2239 12.7239 22 13 22H16.5C16.7761 22 17 22.2239 17 22.5C17 22.7761 16.7761 23 16.5 23H13C12.7239 23 12.5 22.7761 12.5 22.5Z" fill="black" fill-opacity="0.8956"/>
<path fill-rule="evenodd" clip-rule="evenodd" d="M18 1.5C18 1.22386 18.2239 1 18.5 1H23V5.5C23 5.77614 22.7761 6 22.5 6C22.2239 6 22 5.77614 22 5.5V2H18.5C18.2239 2 18 1.77614 18 1.5Z" fill="black" fill-opacity="0.8956"/>
<path fill-rule="evenodd" clip-rule="evenodd" d="M18 22.5C18 22.7761 18.2239 23 18.5 23H23V18.5C23 18.2239 22.7761 18 22.5 18C22.2239 18 22 18.2239 22 18.5V22H18.5C18.2239 22 18 22.2239 18 22.5Z" fill="black" fill-opacity="0.8956"/>
<path fill-rule="evenodd" clip-rule="evenodd" d="M1.5 6C1.22386 6 1 5.77614 1 5.5L1 1L5.5 1C5.77614 1 6 1.22386 6 1.5C6 1.77614 5.77614 2 5.5 2L2 2L2 5.5C2 5.77614 1.77614 6 1.5 6Z" fill="black" fill-opacity="0.8956"/>
<path fill-rule="evenodd" clip-rule="evenodd" d="M1.5 18C1.22386 18 1 18.2239 1 18.5L1 23H5.5C5.77614 23 6 22.7761 6 22.5C6 22.2239 5.77614 22 5.5 22H2L2 18.5C2 18.2239 1.77614 18 1.5 18Z" fill="black" fill-opacity="0.8956"/>
</svg>
