<svg viewBox="0 0 24 24" fill="none" xmlns="http://www.w3.org/2000/svg">
<path d="M2 4C2 2.89543 2.89543 2 4 2H6.5C6.77614 2 7 1.77614 7 1.5C7 1.22386 6.77614 1 6.5 1H4C2.34315 1 1 2.34315 1 4V6.5C1 6.77614 1.22386 7 1.5 7C1.77614 7 2 6.77614 2 6.5V4Z" fill="black" fill-opacity="0.8956"/>
<path d="M23 17.5C23 17.2239 22.7761 17 22.5 17C22.2239 17 22 17.2239 22 17.5V20C22 21.1046 21.1046 22 20 22H17.5C17.2239 22 17 22.2239 17 22.5C17 22.7761 17.2239 23 17.5 23H20C21.6569 23 23 21.6569 23 20V17.5Z" fill="black" fill-opacity="0.8956"/>
<path d="M22.5 9C22.7761 9 23 9.22386 23 9.5V14.5C23 14.7761 22.7761 15 22.5 15C22.2239 15 22 14.7761 22 14.5V9.5C22 9.22386 22.2239 9 22.5 9Z" fill="black" fill-opacity="0.8956"/>
<path d="M9.5 1C9.22386 1 9 1.22386 9 1.5C9 1.77614 9.22386 2 9.5 2H14.5C14.7761 2 15 1.77614 15 1.5C15 1.22386 14.7761 1 14.5 1H9.5Z" fill="black" fill-opacity="0.8956"/>
<path d="M17.5 1C17.2239 1 17 1.22386 17 1.5C17 1.77614 17.2239 2 17.5 2H21.2929L16.1464 7.14645C15.9512 7.34171 15.9512 7.65829 16.1464 7.85355C16.3417 8.04882 16.6583 8.04882 16.8536 7.85355L22 2.70711V6.5C22 6.77614 22.2239 7 22.5 7C22.7761 7 23 6.77614 23 6.5V2C23 1.44772 22.5523 1 22 1H17.5Z" fill="#005FB8"/>
<path d="M11 14C11.5523 14 12 13.5523 12 13C12 12.4477 11.5523 12 11 12C10.4477 12 10 12.4477 10 13C10 13.5523 10.4477 14 11 14Z" fill="#005FB8"/>
<path fill-rule="evenodd" clip-rule="evenodd" d="M1 12C1 10.3431 2.34315 9 4 9H12C13.6569 9 15 10.3431 15 12V20C15 21.6569 13.6569 23 12 23H4C2.34315 23 1 21.6569 1 20V12ZM4 10C2.89543 10 2 10.8954 2 12V20C2 20.3709 2.10096 20.7182 2.27691 21.016L6.05545 17.2374C7.1294 16.1635 8.8706 16.1635 9.94454 17.2374L13.7231 21.016C13.899 20.7182 14 20.3709 14 20V12C14 10.8954 13.1046 10 12 10H4ZM4 22C3.6291 22 3.28177 21.899 2.98402 21.7231L6.76256 17.9445C7.44598 17.2611 8.55402 17.2611 9.23744 17.9445L13.016 21.7231C12.7182 21.899 12.3709 22 12 22H4Z" fill="#005FB8"/>
</svg>
