<svg viewBox="0 0 16 16" fill="none" xmlns="http://www.w3.org/2000/svg">
<path d="M14.5 14.5V7.5L1.5 14.5H14.5Z" stroke="#555555" stroke-linecap="round" stroke-linejoin="round"/>
<path d="M5.5 9.5C3.29086 9.5 1.5 8.15685 1.5 6.5C1.5 4.84315 3.29086 3.5 5.5 3.5H11M9.5 1.5L11.5 3.5L9.5 5.5" stroke="black" stroke-opacity="0.8956" stroke-linecap="round" stroke-linejoin="round"/>
<path d="M14.7564 7.07074C14.9075 7.16099 15 7.32401 15 7.5V14.5C15 14.7761 14.7762 15 14.5 15H1.50005C1.27098 15 1.07122 14.8443 1.01522 14.6222C0.95922 14.4001 1.06131 14.1684 1.263 14.0598L14.263 7.05976C14.4179 6.97633 14.6054 6.9805 14.7564 7.07074Z" fill="#005FB7"/>
</svg>
