<svg viewBox="0 0 12 12" fill="none" xmlns="http://www.w3.org/2000/svg">
<path d="M10.8315 3.18638C10.9654 3.31659 11.0677 3.46912 11.1384 3.64397C11.2128 3.81882 11.25 4.00298 11.25 4.19643V9.82143C11.25 10.0781 11.1849 10.3162 11.0547 10.5357C10.9282 10.7552 10.7552 10.9301 10.5357 11.0603C10.3199 11.1868 10.0818 11.25 9.82143 11.25H2.67857C2.42188 11.25 2.18378 11.1868 1.96429 11.0603C1.74479 10.9301 1.56994 10.7571 1.43973 10.5413C1.31324 10.3218 1.25 10.0818 1.25 9.82143V2.67857C1.25 2.42188 1.31324 2.18378 1.43973 1.96429C1.56994 1.74479 1.74293 1.5718 1.95871 1.44531C2.1782 1.3151 2.41815 1.25 2.67857 1.25H8.30357C8.4933 1.25 8.6756 1.2872 8.85045 1.36161C9.0253 1.43229 9.17969 1.5346 9.31362 1.66853L10.8315 3.18638ZM10.5357 4.19643C10.5357 3.99554 10.4669 3.82626 10.3292 3.68862L8.81138 2.17076C8.69606 2.05171 8.55655 1.98475 8.39286 1.96987V3.75C8.39286 3.94345 8.34449 4.12202 8.24777 4.28571C8.15104 4.4494 8.02083 4.57961 7.85714 4.67634C7.69345 4.77307 7.51488 4.82143 7.32143 4.82143H4.46429C4.27083 4.82143 4.09226 4.77307 3.92857 4.67634C3.76488 4.57961 3.63467 4.4494 3.53795 4.28571C3.44122 4.12202 3.39286 3.94345 3.39286 3.75V1.96429H2.67857C2.4814 1.96429 2.31213 2.03497 2.17076 2.17634C2.03311 2.31399 1.96429 2.4814 1.96429 2.67857V9.82143C1.96429 10.0186 2.03311 10.1879 2.17076 10.3292C2.31213 10.4669 2.4814 10.5357 2.67857 10.5357V7.32143C2.67857 7.12798 2.72693 6.9494 2.82366 6.78571C2.92039 6.62202 3.0506 6.49182 3.21429 6.39509C3.37798 6.29836 3.55655 6.25 3.75 6.25H8.75C8.94345 6.25 9.12202 6.29836 9.28571 6.39509C9.4494 6.49182 9.57961 6.62202 9.67634 6.78571C9.77307 6.9494 9.82143 7.12798 9.82143 7.32143V10.5357C10.0186 10.5357 10.186 10.4669 10.3237 10.3292C10.465 10.1879 10.5357 10.0186 10.5357 9.82143V4.19643ZM4.10714 1.96429V3.75C4.10714 3.84673 4.14249 3.93043 4.21317 4.00112C4.28385 4.0718 4.36756 4.10714 4.46429 4.10714H7.32143C7.41815 4.10714 7.50186 4.0718 7.57254 4.00112C7.64323 3.93043 7.67857 3.84673 7.67857 3.75V1.96429H4.10714ZM9.10714 10.5357V7.32143C9.10714 7.2247 9.0718 7.141 9.00112 7.07031C8.93043 6.99963 8.84673 6.96429 8.75 6.96429H3.75C3.65327 6.96429 3.56957 6.99963 3.49888 7.07031C3.4282 7.141 3.39286 7.2247 3.39286 7.32143V10.5357H9.10714Z" fill="black" fill-opacity="0.8956"/>
</svg>
