<svg viewBox="0 0 24 24" fill="none" xmlns="http://www.w3.org/2000/svg">
<path fill-rule="evenodd" clip-rule="evenodd" d="M2.83333 9.08334C2.83333 5.63156 5.63156 2.83333 9.08334 2.83333C12.3951 2.83333 15.1053 5.40916 15.3197 8.66667H16.1546C15.939 4.94859 12.8555 2 9.08334 2C5.17132 2 2 5.17132 2 9.08334C2 12.8555 4.94859 15.939 8.66667 16.1546V15.3197C5.40916 15.1053 2.83333 12.3951 2.83333 9.08334Z" fill="#005FB7"/>
<path fill-rule="evenodd" clip-rule="evenodd" d="M9.5 11.5833C9.5 10.4327 10.4327 9.5 11.5833 9.5H19.9166C21.0672 9.5 21.9999 10.4327 21.9999 11.5833V19.9167C21.9999 21.0673 21.0672 22 19.9166 22L11.5833 22C10.4327 22 9.5 21.0673 9.5 19.9167V11.5833ZM11.5833 10.3333C10.893 10.3333 10.3333 10.893 10.3333 11.5833V19.9167C10.3333 20.607 10.893 21.1667 11.5833 21.1667L19.9166 21.1667C20.6069 21.1667 21.1666 20.607 21.1666 19.9167V11.5833C21.1666 10.893 20.6069 10.3333 19.9166 10.3333H11.5833Z" fill="black" fill-opacity="0.8956"/>
</svg>
