<svg viewBox="0 0 24 24" fill="none" xmlns="http://www.w3.org/2000/svg">
<path d="M1.23389 7.17816C2.81337 7.17816 7.93829 7.17816 12.6768 9.53488C17.3988 11.8835 21.6376 12.0671 22.7658 12.0671" stroke="black" stroke-opacity="0.8956" stroke-linecap="round"/>
<path d="M1.46802 10.3555H2.01023C3.97469 10.373 8.24226 10.5666 12.7031 12.7131C17.0529 14.8061 20.5044 15.2178 22.0334 15.2445H22.5318" stroke="black" stroke-opacity="0.8956" stroke-width="1.5" stroke-linecap="round"/>
<path d="M1.70215 14.511C3.81321 14.54 8.24719 14.7858 12.7253 16.8701C17.0209 18.8694 20.6145 19.3526 22.2979 19.3999" stroke="black" stroke-opacity="0.8956" stroke-width="2" stroke-linecap="round"/>
<path d="M1 4H1.35505C3.01097 4 7.74215 4.1711 12.7099 6.39477C17.6605 8.61077 21.4626 8.7315 22.6454 8.7315H23" stroke="black" stroke-opacity="0.8956" stroke-width="0.5" stroke-linecap="round"/>
</svg>
