<svg viewBox="0 0 24 24" fill="none" xmlns="http://www.w3.org/2000/svg">
<g clip-path="url(#clip0)">
<path fill-rule="evenodd" clip-rule="evenodd" d="M21.4878 2.76199C20.365 1.63923 18.5447 1.63923 17.4219 2.76199L11.9046 8.2803L11.6246 8.0003L11.159 8.5954L19.3935 16.8299C19.9111 17.3474 20.313 17.9689 20.5725 18.6533C20.8855 19.4783 21.2745 20.2724 21.7345 21.0254L21.7787 21.0977C22.1552 21.7139 21.4492 22.42 20.8329 22.0435L20.7606 21.9993C20.0077 21.5393 19.2136 21.1502 18.3885 20.8373C17.7042 20.5777 17.0827 20.1759 16.5651 19.6583L8.3189 11.4121L7.74756 11.9014L8.01552 12.1694L2.01389 18.171L1.45396 22.0897C1.39502 22.5022 1.74859 22.8558 2.16108 22.7968L6.07975 22.2369L12.0814 16.2353L16.0348 20.1886C16.6274 20.7812 17.339 21.2413 18.1226 21.5386C18.9041 21.835 19.6563 22.2035 20.3696 22.6393L20.4419 22.6835C21.7299 23.4705 23.2057 21.9947 22.4187 20.7066L22.3745 20.6344C21.9387 19.9211 21.5702 19.1689 21.2738 18.3873C20.9766 17.6037 20.5165 16.8921 19.9239 16.2995L15.9705 12.3462L21.4878 6.82785C22.6105 5.7051 22.6105 3.88475 21.4878 2.76199ZM16.2734 4.97221L19.2786 7.97741L15.4401 11.8158L12.4349 8.81063L16.2734 4.97221ZM19.8087 7.44621L20.9574 6.29752C21.7873 5.46766 21.7873 4.12218 20.9574 3.29232C20.1276 2.46246 18.7821 2.46246 17.9522 3.29232L16.8035 4.44101L19.8087 7.44621ZM8.54585 12.6997L11.5511 15.7049L5.72619 21.5298L2.22 22.0308L2.72098 18.5246L8.54585 12.6997Z" fill="black" fill-opacity="0.8956"/>
<path fill-rule="evenodd" clip-rule="evenodd" d="M7.13076 2.59221C5.80441 1.26586 3.6539 1.26579 2.32753 2.59215C1.00237 3.91731 1.00118 6.06508 2.32394 7.39172L3.70702 8.84885C3.09908 9.70318 3.17819 10.8962 3.94436 11.6624L4.57896 12.297C5.43336 13.1514 6.8186 13.1514 7.673 12.297L12.0066 7.96343C12.861 7.10904 12.861 5.7238 12.0066 4.8694L11.372 4.2348C10.5996 3.46245 9.39347 3.38829 8.53781 4.0123L7.13198 2.59343L7.13076 2.59221ZM7.98887 4.52386L4.21653 8.29621L2.85791 6.86486C1.82449 5.83139 1.82441 4.15593 2.85786 3.12248C3.89113 2.08922 5.56632 2.08906 6.59984 3.12195L7.98887 4.52386ZM4.47469 9.0987L8.80826 4.76513C9.36976 4.20363 10.2801 4.20363 10.8416 4.76513L11.4762 5.39973C12.0377 5.96123 12.0377 6.8716 11.4762 7.43311L7.14267 11.7667C6.58117 12.3282 5.67079 12.3282 5.10929 11.7667L4.47469 11.1321C3.91319 10.5706 3.91319 9.66021 4.47469 9.0987Z" fill="#005FB8"/>
</g>
<defs>
<clipPath id="clip0">
<rect width="22" height="22" fill="white" transform="translate(1 1)"/>
</clipPath>
</defs>
</svg>
