<svg viewBox="0 0 24 24" fill="none" xmlns="http://www.w3.org/2000/svg">
<path fill-rule="evenodd" clip-rule="evenodd" d="M4.08333 4.83333C3.39298 4.83333 2.83333 5.39298 2.83333 6.08333V16.9167C2.83333 17.607 3.39298 18.1667 4.08333 18.1667H19.9167C20.607 18.1667 21.1667 17.607 21.1667 16.9167V10.9404C21.1667 10.6088 21.035 10.2909 20.8005 10.0565L15.9435 5.19945C15.7091 4.96503 15.3912 4.83333 15.0596 4.83333H4.08333ZM2 6.08333C2 4.93274 2.93274 4 4.08333 4H15.0596C15.6122 4 16.1421 4.21949 16.5328 4.61019L21.3898 9.46722C21.7805 9.85792 22 10.3878 22 10.9404V16.9167C22 18.0673 21.0673 19 19.9167 19H4.08333C2.93274 19 2 18.0673 2 16.9167V6.08333Z" fill="#000000" fill-opacity="0.359"/>
<path fill-rule="evenodd" clip-rule="evenodd" d="M15.3333 8.99992V4.83325H16.1666V8.99992C16.1666 9.46016 16.5397 9.83325 16.9999 9.83325H21.1666V10.6666H16.9999C16.0794 10.6666 15.3333 9.92039 15.3333 8.99992Z" fill="#000000" fill-opacity="0.359"/>
<path fill-rule="evenodd" clip-rule="evenodd" d="M11.1667 18.1666V4.83325H12.0001V18.1666H11.1667Z" fill="#000000" fill-opacity="0.359"/>
</svg>
