<svg viewBox="0 0 22 22" fill="none" xmlns="http://www.w3.org/2000/svg">
<path fill-rule="evenodd" clip-rule="evenodd" d="M10.6618 0.134243C10.8486 -0.0447476 11.1514 -0.0447476 11.3382 0.134243L21.8599 10.2176C22.0467 10.3966 22.0467 10.6868 21.8599 10.8658C21.6731 11.0447 21.3703 11.0447 21.1836 10.8658L11 1.10651L0.816442 10.8658C0.62967 11.0447 0.326852 11.0447 0.140079 10.8658C-0.0466931 10.6868 -0.0466931 10.3966 0.140079 10.2176L10.6618 0.134243Z" fill="black" fill-opacity="0.8956"/>
<path fill-rule="evenodd" clip-rule="evenodd" d="M11 0.458252C11.2641 0.458252 11.4782 0.663455 11.4782 0.916585V21.5416C11.4782 21.7947 11.2641 21.9999 11 21.9999C10.7359 21.9999 10.5217 21.7947 10.5217 21.5416V0.916585C10.5217 0.663455 10.7359 0.458252 11 0.458252Z" fill="black" fill-opacity="0.8956"/>
</svg>
