<svg viewBox="0 0 24 24" fill="none" xmlns="http://www.w3.org/2000/svg">
<path id="penTip" d="M17.4663 15.4929C15.8269 15.1778 13.9688 15 12 15C10.0628 15 8.23288 15.1721 6.61296 15.4778C6.5377 16.5786 6.5 17.682 6.5 18.7861V21.8186C6.5 22.1277 6.77772 22.3628 7.0826 22.3117L7.9873 22.1601V21C7.9873 20.7239 8.21116 20.5 8.4873 20.5C8.76345 20.5 8.9873 20.7239 8.9873 21V21.9926L9.97729 21.8268V18C9.97729 17.7239 10.2012 17.5 10.4773 17.5C10.7534 17.5 10.9773 17.7239 10.9773 18V21.6593L11.9673 21.4935V20C11.9673 19.7239 12.1911 19.5 12.4673 19.5C12.7434 19.5 12.9673 19.7239 12.9673 20V21.3259L17.0502 20.642C17.2855 20.6026 17.457 20.4042 17.4628 20.1702C17.4914 19.0119 17.5281 16.9066 17.4663 15.4929Z" fill="gray"/>
<path fill-rule="evenodd" d="M7.99253 4.5V1H6.99253V4.93875L6.01235 8.87931C5.97521 9.02862 6.00888 9.18672 6.10364 9.30794C6.16776 9.38996 6.25501 9.44891 6.35239 9.47847L6.08755 11.182C5.69643 13.6978 5.5 16.2401 5.5 18.7861V21.8186C5.5 22.746 6.33315 23.4512 7.24781 23.2979L17.2154 21.6283C17.9188 21.5104 18.4447 20.9124 18.4625 20.1949C18.4941 18.9142 18.5382 16.3958 18.4384 14.9652C18.354 13.7548 18.1168 12.2334 17.9036 11.0259C17.7966 10.4197 17.6948 9.88812 17.6197 9.50795L17.6122 9.4702C17.6986 9.43897 17.7758 9.38415 17.8342 9.31041C17.929 9.19065 17.9639 9.03411 17.9289 8.88542L17.0005 4.94193V1H16.0005V4.5H7.99253ZM7.8834 5.5L7.13717 8.5H16.8108L16.1045 5.5H7.8834ZM16.5985 9.5H7.36106L7.07568 11.3356C6.69247 13.8006 6.5 16.2915 6.5 18.7861V21.8186C6.5 22.1277 6.77772 22.3628 7.0826 22.3117L7.9873 22.1601V21C7.9873 20.7239 8.21116 20.5 8.4873 20.5C8.76345 20.5 8.9873 20.7239 8.9873 21V21.9926L9.97729 21.8268V18C9.97729 17.7239 10.2012 17.5 10.4773 17.5C10.7534 17.5 10.9773 17.7239 10.9773 18V21.6593L11.9673 21.4935V20C11.9673 19.7239 12.1911 19.5 12.4673 19.5C12.7434 19.5 12.9673 19.7239 12.9673 20V21.3259L17.0502 20.642C17.2855 20.6026 17.457 20.4042 17.4628 20.1702C17.4947 18.8786 17.5367 16.4095 17.4408 15.0348C17.3602 13.8794 17.1309 12.4009 16.9188 11.1998C16.8132 10.6017 16.7127 10.0768 16.6387 9.70167C16.6242 9.62856 16.6108 9.56114 16.5985 9.5Z" fill="#373737"/>
</svg>